<?xml version="1.0" encoding="utf-8"?>
<!-- Generator: Adobe Illustrator 18.0.0, SVG Export Plug-In . SVG Version: 6.00 Build 0)  -->
<!DOCTYPE svg PUBLIC "-//W3C//DTD SVG 1.1//EN" "http://www.w3.org/Graphics/SVG/1.1/DTD/svg11.dtd">
<svg version="1.1" id="Capa_1" xmlns="http://www.w3.org/2000/svg" xmlns:xlink="http://www.w3.org/1999/xlink" x="0px" y="0px"
	 width="612px" height="609.2px" viewBox="0 91.4 612 609.2" enable-background="new 0 91.4 612 609.2" xml:space="preserve">
<path fill="#666666" d="M319.2,465.5l-16.7-37c15.9-11.7,29.5-26.2,40.2-42.7l38,14.4c7.3,2.8,15.4-0.9,18.1-8.2l13.9-36.8
	c1.3-3.5,1.2-7.4-0.3-10.7c-1.5-3.4-4.3-6-7.8-7.4l-38-14.4c3-19.5,2.4-39.4-1.8-58.6l37-16.7c3.4-1.5,6-4.3,7.4-7.8
	c1.3-3.5,1.2-7.4-0.3-10.7l-16.2-35.9c-3.2-7.1-11.5-10.2-18.6-7l-37,16.7c-11.7-15.9-26.2-29.5-42.7-40.2l14.4-38
	c2.7-7.3-0.9-15.4-8.2-18.1l-36.8-14c-3.5-1.3-7.3-1.2-10.7,0.3c-3.4,1.5-6,4.3-7.4,7.8l-14.4,38c-19.5-3-39.4-2.4-58.7,1.8
	l-16.7-37c-1.5-3.4-4.3-6-7.8-7.4c-3.5-1.3-7.4-1.2-10.7,0.3l-35.9,16.2c-7.1,3.2-10.2,11.5-7,18.6l16.7,37
	c-15.9,11.7-29.5,26.2-40.2,42.7l-38-14.4c-3.5-1.3-7.3-1.2-10.7,0.3c-3.4,1.5-6,4.3-7.4,7.8L0.9,241.3c-2.7,7.3,0.9,15.4,8.2,18.1
	l38,14.4c-3,19.5-2.4,39.4,1.8,58.6l-37,16.7c-3.4,1.5-6,4.3-7.4,7.8c-1.3,3.5-1.2,7.4,0.3,10.7l16.2,35.9c1.5,3.4,4.3,6,7.8,7.4
	c3.5,1.3,7.4,1.2,10.7-0.3l37-16.7c11.7,15.9,26.2,29.5,42.7,40.2l-14.4,38c-2.7,7.3,0.9,15.4,8.2,18.1l36.8,13.9
	c1.6,0.6,3.3,0.9,5,0.9c2,0,3.9-0.4,5.8-1.2c3.4-1.5,6-4.3,7.4-7.8l14.4-38c19.5,3,39.4,2.4,58.7-1.8l16.7,37c1.5,3.4,4.3,6,7.8,7.4
	c3.5,1.3,7.4,1.2,10.7-0.3l35.9-16.2C319.2,480.9,322.4,472.6,319.2,465.5z M295.9,332c-13.9,36.8-49.8,61.5-89.1,61.5
	c-11.5,0-22.9-2.1-33.7-6.2c-23.8-9-42.7-26.8-53.1-50c-10.5-23.2-11.2-49.1-2.2-72.9c13.9-36.8,49.8-61.5,89.1-61.5
	c11.5,0,22.9,2.1,33.7,6.2c23.8,9,42.7,26.8,53.1,50C304.1,282.3,304.9,308.2,295.9,332z M608.3,523.8c-2.5-2.7-6-4.4-9.7-4.5
	l-26.5-1.1c-2.4-12.5-6.8-24.5-13-35.7l19.5-17.9c5.7-5.2,6.1-14.1,0.9-19.8l-19.4-21.1c-2.5-2.7-6-4.4-9.8-4.5
	c-3.7-0.1-7.4,1.2-10.1,3.7l-19.5,17.9c-10.6-7.1-22.2-12.5-34.4-16l1.1-26.5c0.3-7.8-5.7-14.3-13.4-14.6l-28.6-1.2
	c-7.7-0.3-14.3,5.7-14.6,13.4l-1.1,26.5c-12.5,2.4-24.5,6.8-35.7,13L376,415.7c-2.5-2.7-6-4.4-9.7-4.5c-3.7-0.2-7.4,1.2-10.1,3.7
	L335,434.2c-5.7,5.2-6.1,14.1-0.9,19.8l17.9,19.5c-7.1,10.6-12.5,22.2-16,34.4l-26.5-1.1c-7.7-0.3-14.3,5.7-14.6,13.4l-1.2,28.6
	c-0.2,3.7,1.2,7.4,3.7,10.1c2.5,2.7,6,4.4,9.8,4.5l26.5,1.1c2.4,12.5,6.8,24.5,13,35.7l-19.5,17.9c-2.7,2.5-4.4,6-4.5,9.7
	c-0.2,3.7,1.2,7.4,3.7,10.1l19.4,21.1c2.5,2.7,6,4.4,9.8,4.5c3.7,0.1,7.4-1.2,10.1-3.7l19.5-17.9c10.6,7.1,22.2,12.5,34.4,16
	l-1.1,26.5c-0.3,7.8,5.7,14.3,13.4,14.6l28.6,1.2c0.2,0,0.4,0,0.6,0c3.5,0,6.9-1.3,9.5-3.7c2.7-2.5,4.4-6,4.5-9.7l1.1-26.5
	c12.5-2.4,24.5-6.8,35.7-13l17.9,19.5c2.5,2.7,6,4.4,9.7,4.5c3.7,0.2,7.4-1.2,10.1-3.7l21.1-19.4c5.7-5.2,6.1-14.1,0.9-19.8
	l-17.9-19.5c7.1-10.6,12.5-22.2,16-34.4l26.5,1.1c7.7,0.3,14.3-5.7,14.6-13.4l1.2-28.6C612.1,530.2,610.8,526.6,608.3,523.8z
	 M450,606.9c-36.1-1.5-64.2-32.2-62.6-68.3c1.5-35.2,30.2-62.7,65.4-62.7c0.9,0,1.9,0,2.9,0.1c36.1,1.5,64.2,32.2,62.6,68.3
	C516.8,580.4,486.4,608.4,450,606.9z"/>
</svg>
